<?xml version="1.0" encoding="utf-8"?>
<!-- Generator: Adobe Illustrator 26.2.0, SVG Export Plug-In . SVG Version: 6.00 Build 0)  -->
<svg version="1.1" id="Layer_1" xmlns="http://www.w3.org/2000/svg" xmlns:xlink="http://www.w3.org/1999/xlink" x="0px" y="0px"
	 viewBox="0 0 342.5 44.2" style="enable-background:new 0 0 342.5 44.2;" xml:space="preserve">
<style type="text/css">
	.st0{fill:#302F2E;}
</style>
<g>
	<g>
		<path class="st0" d="M36.7,29.3c1,1.4,1.3,1.9,1.2,2.6c-0.1,0.8-0.6,1.2-1.8,1.2c-0.1,0-7.7,0-7.7,0c-1.2,0-1.7-0.3-1.8-1.2
			c0-0.7,0.2-1.2,1.2-2.6c0.7-1,0.7-2.2,0.7-4.9v-9.7c-2.3,5.6-5.2,12.6-5.8,14.1c-1.1,2.7-1.5,4.3-3.7,4.3c-1.8,0-2.6-1.7-3.4-3.6
			c-0.4-1.1-3.4-8.7-5.9-15v9.9c0,2.7,0.1,4,0.8,4.9c1,1.4,1.3,1.9,1.3,2.6c-0.1,0.8-0.6,1.2-1.8,1.2c-0.1,0-4,0-4.1,0
			c-1.2,0-1.7-0.3-1.8-1.2c0-0.7,0.2-1.2,1.2-2.6c0.7-1,0.8-2.2,0.8-4.9v-9.7c0-2.7-0.1-3.9-0.8-4.9c-1-1.4-1.3-1.9-1.2-2.6
			C4.2,6.4,4.8,6.1,6,6.1c0.1,0,4.4,0,6,0c1.6,0,2.7,0.4,3.4,2.2c0.8,2.2,5.6,15.3,5.6,15.3s5.4-12.7,6.4-15.1
			c0.7-1.7,1.2-2.4,3.3-2.4c0.1,0,5.4,0,5.4,0c1.2,0,1.7,0.4,1.8,1.2c0,0.7-0.2,1.2-1.2,2.6c-0.7,1-0.7,2.3-0.7,4.9v9.7
			C36,27.1,36,28.4,36.7,29.3z"/>
		<path class="st0" d="M57.6,20.8c-1.3,3.3-2.8,7.3-3.8,10.1c-2,5.4-2.7,9.9-6.9,10.8c-2.6,0.6-6.9-0.2-7.3-2.6
			c-0.3-1.7,0.8-2.9,2-3.1c3.1-0.6,3.1,2.3,5.1,2c0.7-0.1,1.3-0.5,2.4-3.9c-0.7-1.5-3.4-7.1-5.5-11.6c-1.5-3-2.3-3.7-3.1-4.8
			c-0.8-1.1-1.1-1.5-1-2.4c0.1-0.8,0.7-1.2,2.1-1.2c0.3,0,3.3,0,5.6,0c1.5,0,2.4,0.2,2.3,1.4c-0.1,1.3-1,1.7-0.5,2.9
			c0.5,1.1,3.1,7.5,3.1,7.5l1.9-5.3c1.6-4.4-0.3-4-0.1-5.5c0.1-0.8,0.5-1.1,1.5-1.1c0.4,0,3.1,0,4.1,0c0.8,0,1.2,0.5,1.2,1.1
			C60.8,16.8,59.2,16.6,57.6,20.8z"/>
		<path class="st0" d="M99.7,19.6c0,8.1-6,13.5-15.3,13.5c-0.2,0-9.3,0-9.4,0c-1.2,0-1.7-0.3-1.8-1.2c-0.1-0.7,0.2-1.2,1.2-2.6
			c0.7-1,0.7-2.2,0.7-4.9v-9.7c0-2.7,0-3.9-0.7-4.9c-1-1.4-1.3-1.9-1.2-2.6c0-0.8,0.6-1.2,1.8-1.2c0.1,0,9.2,0,9.4,0
			C93.7,6.1,99.7,11.5,99.7,19.6z M91.4,19.6c0-5.6-2.5-9.9-6.1-9.9c0,0-0.2,0-0.2,0c-2,0-2.6,1-2.6,4.2c0,1.7,0,9.7,0,11.4
			c0,3.2,0.5,4.2,2.6,4.2c0,0,0.2,0,0.2,0C88.8,29.4,91.4,25.2,91.4,19.6z"/>
		<path class="st0" d="M121.8,28.6c-1.2,2.6-3.8,4.9-8.3,4.9c-5.4,0-10.7-3.1-10.9-9.5c-0.2-6.6,4.9-10.3,10.7-10
			c5.7,0.2,8.4,4.1,8.7,7.3c0.3,2.6-0.2,3.6-2.7,3.6c-1.9,0-9.5,0-9.5,0c0.9,4.9,7.4,5.7,10.5,2.7C121.3,26.3,122.4,27.1,121.8,28.6
			z M109.7,20.5c-0.1,0.4,0.1,0.8,0.4,0.8c0.9,0,3.8,0,4.5,0c0.9,0,1.4-0.7,1-1.8c-0.3-1.1-0.9-2.7-3.1-2.5
			C110.9,17.1,110.1,18.9,109.7,20.5z"/>
		<path class="st0" d="M142.9,28.7c-0.8,3.4-4.4,4.7-8.7,4.7c-8.1,0-11.2-4.6-8.8-7.1c1.2-1.2,3.4-1.1,4.1,1c0.8,2.6,2.4,2.8,3.9,3
			c1.2,0.2,3,0.1,3.2-1.1c0.3-1.5-2.2-1.9-5.1-3.2c-2.8-1.2-7.1-3.3-5.4-8.4c1.2-3.4,4.9-4.1,8.6-3.9c6.2,0.3,8.3,4.4,6.4,6.6
			c-0.9,1-3.1,1-3.9-0.5c-0.7-1.3-0.6-3-3.1-3.2c-1.1-0.1-2.2,0.2-2.4,1.2c-0.2,1,1,1.8,4,2.9C140.5,22.9,144.1,23.9,142.9,28.7z"/>
		<path class="st0" d="M156.9,31.9c-0.1,0.8-0.6,1.2-1.8,1.2c-0.1,0-7.4,0-7.5,0c-1.2,0-1.7-0.3-1.8-1.2c-0.1-0.7,0.2-1.2,1.2-2.6
			c0.7-1,0.7-2.2,0.7-4.9c0-2.7,0-3.9-0.7-4.9c-1-1.4-1.3-1.9-1.2-2.6c0-0.8,0.6-1.3,1.8-1.7c1.2-0.4,3.5-1.1,3.9-1.2
			c2.2-0.6,3.4,0.4,3.4,2.6c0,0.9,0,4.3,0,7.8c0,2.7,0,4,0.7,4.9C156.7,30.7,156.9,31.2,156.9,31.9z M146.5,8.2c0-2.2,2-4,4.4-4
			c2.4,0,4.4,1.8,4.4,4c0,2.2-2,4-4.4,4C148.4,12.2,146.5,10.4,146.5,8.2z"/>
		<path class="st0" d="M179.9,35.1c-0.3,5.4-6.6,6.8-11.4,6.8s-10.4-1-9.9-4.9c0.2-1.7,1.2-2.5,2.2-2.9c-0.7-0.5-1.9-1.6-1.4-3.7
			c0.3-1.7,1.9-2.8,3.2-3.4c-1.7-1.3-2.7-3.2-2.7-5.5c0-4.6,3.8-7.5,9-7.5c0.8,0,1.5,0.1,2.3,0.2c0-1.4,0.3-3.8,2.7-4.8
			c2.7-1,5,0.4,4.6,2.7c-0.3,1.5-1.8,2.7-3.3,1.9c-1.1-0.6-1.5-1.5-2.2-1c-0.2,0.2-0.3,0.8,0,1.7c3.1,1.1,5,3.5,5,6.8
			c0,4.6-3.8,7.5-9,7.5c-1.7,0-3.3-0.3-4.6-0.9c-0.5,0.6-0.7,1-0.5,1.5c0.3,0.7,3.6,0.9,6.3,0.9C174.1,30.3,180.2,29.7,179.9,35.1z
			 M173.9,37c0-1.3-2.7-0.8-4.6-0.9c-3.9-0.1-4.3-0.5-5.1-0.6c-0.2,0.3-0.3,0.6-0.3,1c0,1.3,1.8,1.8,5.4,1.9
			C172.4,38.5,173.9,38.2,173.9,37z M166.4,21.4c0,2.4,0.8,4.2,2.5,4.2c1.8,0,2.5-1.8,2.5-4.2c0-2.5-0.8-4.2-2.5-4.2
			C167.2,17.1,166.4,18.9,166.4,21.4z"/>
		<path class="st0" d="M205.3,31.9c-0.1,0.8-0.6,1.2-1.8,1.2c-0.1,0-7.3,0-7.4,0c-1.2,0-1.7-0.3-1.8-1.2c0-0.7,0.3-1.2,1.3-2.6
			c0.7-1,0.7-2.2,0.7-4.9V24c0-2.7,0-6.1-2.7-6.1c-1.7,0-2.6,1.4-2.6,3.7c0,0.9,0,1.8,0,2.7c0,2.7,0,4,0.7,4.9
			c1,1.4,1.3,1.9,1.2,2.6c0,0.8-0.6,1.2-1.8,1.2c-0.1,0-7.4,0-7.4,0c-1.2,0-1.7-0.3-1.8-1.2c0-0.7,0.2-1.2,1.2-2.6
			c0.7-1,0.8-2.2,0.8-4.8c0-2.6-0.1-4.1-0.8-5c-1-1.4-1.3-1.9-1.2-2.6c0.1-0.8,0.6-1.3,1.8-1.7c1.2-0.4,3.4-1.1,3.9-1.2
			c2.1-0.6,3.2,0.3,3.4,2.3c1.3-1.3,3.2-2.5,5.6-2.5c5.1,0,6.8,3.4,6.8,6.4c0,0.7,0,2.3,0,4.2c0,2.7,0,4,0.7,4.9
			C205,30.7,205.4,31.2,205.3,31.9z"/>
		<path class="st0" d="M242.4,25.1c0,4.6-3.2,8-10.7,8c-7.5,0-12.1,0-12.2,0c-1.2,0-1.7-0.3-1.8-1.2c0-0.7,0.2-1.2,1.2-2.6
			c0.7-1,0.7-2.2,0.7-4.9v-9.7c0-2.7,0-3.9-0.7-4.9c-1-1.4-1.3-1.9-1.2-2.6c0-0.8,0.6-1.2,1.8-1.2c0.1,0,6.3,0,10.2,0
			c5.9,0,10.2,2.4,10.2,6.9c0,3.1-1.6,5.4-4.7,6C239.6,19.1,242.4,22,242.4,25.1z M227.1,15.1c0,1.5,0.5,2.2,1.7,2.2
			c0.1,0,0.5,0,0.5,0c2,0,3.2-1.7,3.2-3.8c0-2.1-1.2-3.8-3.2-3.8c0,0-0.5,0-0.5,0c-1.2,0-1.7,0.7-1.7,2.2
			C227.1,12,227.1,15,227.1,15.1z M234.4,25.1c0-2.7-1.9-4.3-4.4-4.3c0,0-0.5,0-0.7,0c-1.8,0-2.2,0.3-2.2,2.2c0,0.3,0,3.9,0,4.1
			c0,1.9,0.4,2.3,2.2,2.3c0.2,0,0.6,0,0.7,0C232.5,29.5,234.4,27.8,234.4,25.1z"/>
		<path class="st0" d="M268.3,30.5c-0.1,1.7-2.2,2.9-4.4,2.9c-2.9,0-4.3-0.8-4.9-2.5c-1.1,1.6-3.4,2.5-5.9,2.5
			c-5.1,0-6.8-3.4-6.8-6.4c0-0.7,0-2.6,0-2.6c0-2.7,0-3.9-0.7-4.9c-1-1.4-1.3-1.9-1.2-2.6c0-0.8,0.6-1.3,1.8-1.7
			c1.2-0.4,3.5-1.1,3.9-1.2c2.2-0.6,3.3,0.4,3.3,2.6c0,1.8,0,6.6,0,6.6c0,2.7,0,6.1,2.8,6.1c1.7,0,2.6-1.4,2.6-3.7
			c0-0.2,0-1.2,0-1.2c0-2.7,0-3.9-0.7-4.9c-1-1.4-1.3-1.9-1.2-2.6c0-0.8,0.6-1.3,1.8-1.7c1.2-0.4,3.5-1.1,3.9-1.2
			c2.2-0.6,3.4,0.4,3.4,2.6c0,2,0,6.1,0,6.1c0,2.7-0.1,5.1,0.7,5.8C267.5,29.3,268.4,29.3,268.3,30.5z"/>
		<path class="st0" d="M292.7,31.9c0,0.8-0.6,1.2-1.8,1.2c-0.1,0-2,0-4.2,0c-1.7,0-2.5-0.5-2.9-1.6c-1.2,1.1-2.7,1.9-4.8,2
			c-5.6,0.2-9-4-9-9.8c0-5.8,3.4-10,9-9.8c1.9,0,3.4,0.7,4.6,1.8c0-2.2-0.1-3.4-0.7-4.2c-1-1.4-1.3-1.9-1.2-2.6
			c0.1-0.8,0.6-1.3,1.8-1.7c1.2-0.4,3.4-1,3.9-1.2c2.2-0.6,3.4,0.4,3.4,2.6c0,0.9,0,14.4,0,15.9c0,2.7,0,4,0.7,4.9
			C292.5,30.7,292.8,31.2,292.7,31.9z M284.3,23.6c0-3.4-1.2-5.9-3.6-5.9c-2.4,0-3.6,2.5-3.6,5.9s1.2,5.9,3.6,5.9
			C283.1,29.5,284.3,27,284.3,23.6z"/>
		<path class="st0" d="M317.3,31.9c0,0.8-0.6,1.2-1.8,1.2c-0.1,0-2,0-4.2,0c-1.7,0-2.5-0.5-2.9-1.6c-1.2,1.1-2.7,1.9-4.8,2
			c-5.6,0.2-9-4-9-9.8c0-5.8,3.4-10,9-9.8c1.9,0,3.4,0.7,4.6,1.8c0-2.2-0.1-3.4-0.7-4.2c-1-1.4-1.3-1.9-1.2-2.6
			c0.1-0.8,0.6-1.3,1.8-1.7c1.2-0.4,3.4-1,3.9-1.2c2.2-0.6,3.4,0.4,3.4,2.6c0,0.9,0,14.4,0,15.9c0,2.7,0,4,0.7,4.9
			C317.1,30.7,317.4,31.2,317.3,31.9z M308.9,23.6c0-3.4-1.2-5.9-3.6-5.9c-2.4,0-3.6,2.5-3.6,5.9s1.2,5.9,3.6,5.9
			C307.7,29.5,308.9,27,308.9,23.6z"/>
		<path class="st0" d="M336.2,20.8c-1.3,3.3-2.8,7.3-3.8,10.1c-2,5.4-2.7,9.9-6.9,10.8c-2.6,0.6-6.9-0.2-7.3-2.6
			c-0.3-1.7,0.8-2.9,2-3.1c3.1-0.6,3.1,2.3,5.1,2c0.7-0.1,1.3-0.5,2.4-3.9c-0.7-1.5-3.4-7.1-5.5-11.6c-1.5-3-2.3-3.7-3.1-4.8
			c-0.8-1.1-1.1-1.5-1-2.4c0.1-0.8,0.7-1.2,2.1-1.2c0.3,0,3.3,0,5.6,0c1.5,0,2.4,0.2,2.3,1.4c-0.1,1.3-1,1.7-0.5,2.9
			c0.5,1.1,3.1,7.5,3.1,7.5l1.9-5.3c1.6-4.4-0.3-4-0.1-5.5c0.1-0.8,0.5-1.1,1.5-1.1c0.4,0,3.1,0,4.1,0c0.8,0,1.2,0.5,1.2,1.1
			C339.4,16.8,337.8,16.6,336.2,20.8z"/>
	</g>
</g>
</svg>
