<?xml version="1.0" encoding="UTF-8"?><svg xmlns="http://www.w3.org/2000/svg" viewBox="0 0 87.54 87.54"><defs><style>.d{fill:#efd8ec;}.e{fill:#333;}</style></defs><g id="a"/><g id="b"><g id="c"><g><path class="d" d="M43.77,87.04C19.91,87.04,.5,67.63,.5,43.77S19.91,.5,43.77,.5s43.27,19.41,43.27,43.27-19.41,43.27-43.27,43.27Z"/><path class="e" d="M43.77,1c23.62,0,42.77,19.15,42.77,42.77s-19.15,42.77-42.77,42.77S1,67.39,1,43.77,20.15,1,43.77,1m0-1C19.64,0,0,19.64,0,43.77s19.64,43.77,43.77,43.77,43.77-19.64,43.77-43.77S67.91,0,43.77,0h0Z"/></g></g></g></svg>