<?xml version="1.0" encoding="UTF-8"?><svg xmlns="http://www.w3.org/2000/svg" viewBox="0 0 159.19 158.38"><defs><style>.d{fill:#f4c8c6;stroke:#333;stroke-linecap:round;stroke-linejoin:round;}</style></defs><g id="a"/><g id="b"><g id="c"><path class="d" d="M99.13,9.84l10.03,30.15c1.42,4.26,4.84,7.55,9.16,8.8l30.52,8.83c10.87,3.14,13.41,17.38,4.3,24.1l-25.57,18.85c-3.62,2.67-5.69,6.94-5.54,11.43l1.03,31.75c.37,11.31-12.39,18.13-21.59,11.54l-25.83-18.5c-3.65-2.62-8.36-3.27-12.58-1.74l-29.88,10.79c-10.64,3.84-21.07-6.18-17.65-16.96l9.61-30.28c1.36-4.28,.52-8.96-2.23-12.5L3.4,61.02c-6.94-8.93-.63-21.95,10.68-22.02l31.77-.22c4.49-.03,8.68-2.27,11.2-5.99L74.88,6.49c6.35-9.36,20.68-7.38,24.25,3.35Z"/></g></g></svg>