<?xml version="1.0" encoding="utf-8"?>
<!-- Generator: Adobe Illustrator 26.3.1, SVG Export Plug-In . SVG Version: 6.00 Build 0)  -->
<svg version="1.1" id="Layer_1" xmlns="http://www.w3.org/2000/svg" xmlns:xlink="http://www.w3.org/1999/xlink" x="0px" y="0px"
	 viewBox="0 0 1473.6 84.5" style="enable-background:new 0 0 1473.6 84.5;" xml:space="preserve">
<style type="text/css">
	.st0{fill:#302F2E;}
	.st1{fill:#FFFFFF;}
</style>
<g>
	<path class="st0" d="M1472.4,35V15c-6.9,0-11.4,2.1-15.6,4.6c-0.1,0.1-0.3,0.2-0.4,0.2c-0.8,0.4-1.5,0.9-2.2,1.3
		c-0.1,0.1-0.3,0.2-0.4,0.2c-4.5,2.7-9.2,5.2-16.6,5.2c-16,0-19.2-11.5-35.2-11.5c-3.5,0-6.4,0.6-8.9,1.4c-1,0.3-2,0.7-2.9,1.2
		c-0.4,0.2-0.8,0.4-1.2,0.6c-1.1,0.6-2.2,1.2-3.2,1.8c-0.3,0.2-0.6,0.4-1,0.6c-0.2,0.1-0.5,0.3-0.7,0.4c-4.7,2.8-9.5,5.6-17.3,5.6
		c-16,0-19.2-11.5-35.2-11.5s-19.2,11.5-35.2,11.5s-19.2-11.5-35.1-11.5l0,0c0,0,0,0-0.1,0c0,0,0,0-0.1,0l0,0l0,0l0,0
		c-15.9,0.1-19.1,11.5-35.1,11.5s-19.2-11.5-35.2-11.5s-19.2,11.5-35.3,11.5c-16,0-19.2-11.5-35.2-11.5s-19.2,11.5-35.2,11.5
		c-13.6,0-18-8.4-28.9-10.8c-1.1-0.3-2.3-0.5-3.6-0.6V15c-0.5,0-0.9,0-1.4,0c-0.4,0-0.9,0-1.4,0v0.1c-0.4,0-0.8,0.1-1.3,0.1
		s-0.8,0.1-1.2,0.2c-1.6,0.3-3,0.7-4.3,1.2c-0.3,0.1-0.7,0.2-1,0.4c-8.1,3.3-12.9,9.5-24.7,9.5c-16,0-19.2-11.5-35.2-11.5
		s-19.2,11.5-35.3,11.5c-16,0-19.2-11.5-35.2-11.5s-19.2,11.5-35.2,11.5S857.2,15,841.3,15l0,0l0,0l0,0c0,0,0,0-0.1,0c0,0,0,0-0.1,0
		l0,0l0,0l0,0C825.2,15.1,822,26.5,806,26.5S786.8,15,770.8,15s-19.2,11.5-35.3,11.5c-16,0-19.2-11.5-35.2-11.5
		s-19.2,11.5-35.2,11.5c-15.5,0-19-10.8-33.8-11.5l0,0c-0.2,0-0.5,0-0.7,0l0,0l0,0l0,0c-0.2,0-0.5,0-0.7,0l0,0
		c-14.8,0.7-18.3,11.5-33.8,11.5c-16,0-19.2-11.5-35.2-11.5s-19.2,11.5-35.3,11.5c-16,0-19.2-11.5-35.2-11.5s-19.2,11.5-35.2,11.5
		S436,15,420.1,15l0,0l0,0l0,0c0,0,0,0-0.1,0s0,0-0.1,0l0,0c-15.9,0.1-19.1,11.5-35.1,11.5C368.2,26.5,365,15,349,15
		s-19.2,11.5-35.2,11.5S294.6,15,278.6,15s-19.2,11.5-35.2,11.5c-14.6,0-18.5-9.5-31.2-11.3l0,0V15c-0.7,0-1.4,0-2,0.1
		c-0.7,0-1.3-0.1-2-0.1v0.3l0,0C195.6,17,191.6,26.6,177,26.6c-16,0-19.2-11.5-35.2-11.5s-19.2,11.5-35.3,11.5
		c-16,0-19.2-11.5-35.2-11.5S52.1,26.6,36.1,26.6c-9,0-13.9-3.6-19.3-6.8c-0.1-0.1-0.2-0.1-0.3-0.2C12,17.1,7.5,15,0.6,15v20H1472.4
		z"/>
</g>
<g>
	<path class="st1" d="M1472.4,87V17c-6.9,0-11.4,2.1-15.6,4.6c-0.1,0.1-0.3,0.2-0.4,0.2c-0.8,0.4-1.5,0.9-2.2,1.3
		c-0.1,0.1-0.3,0.2-0.4,0.2c-4.5,2.7-9.2,5.2-16.6,5.2c-16,0-19.2-11.5-35.2-11.5c-3.5,0-6.4,0.6-8.9,1.4c-1,0.3-2,0.7-2.9,1.2
		c-0.4,0.2-0.8,0.4-1.2,0.6c-1.1,0.6-2.2,1.2-3.2,1.8c-0.3,0.2-0.6,0.4-1,0.6c-0.2,0.1-0.5,0.3-0.7,0.4c-4.7,2.8-9.5,5.6-17.3,5.6
		c-16,0-19.2-11.5-35.2-11.5s-19.2,11.5-35.2,11.5s-19.2-11.5-35.1-11.5l0,0c0,0,0,0-0.1,0c0,0,0,0-0.1,0l0,0l0,0l0,0
		c-15.9,0.1-19.1,11.5-35.1,11.5s-19.2-11.5-35.2-11.5s-19.2,11.5-35.3,11.5c-16,0-19.2-11.5-35.2-11.5s-19.2,11.5-35.2,11.5
		c-13.6,0-18-8.4-28.9-10.8c-1.1-0.3-2.3-0.5-3.6-0.6V17c-0.5,0-0.9,0-1.4,0c-0.4,0-0.9,0-1.4,0v0.1c-0.4,0-0.8,0.1-1.3,0.1
		s-0.8,0.1-1.2,0.2c-1.6,0.3-3,0.7-4.3,1.2c-0.3,0.1-0.7,0.2-1,0.4c-8.1,3.3-12.9,9.5-24.7,9.5c-16,0-19.2-11.5-35.2-11.5
		s-19.2,11.5-35.3,11.5c-16,0-19.2-11.5-35.2-11.5s-19.2,11.5-35.2,11.5S857.2,17,841.3,17l0,0l0,0l0,0c0,0,0,0-0.1,0c0,0,0,0-0.1,0
		l0,0l0,0l0,0C825.2,17.1,822,28.5,806,28.5S786.8,17,770.8,17s-19.2,11.5-35.3,11.5c-16,0-19.2-11.5-35.2-11.5
		s-19.2,11.5-35.2,11.5c-15.5,0-19-10.8-33.8-11.5l0,0c-0.2,0-0.5,0-0.7,0l0,0l0,0l0,0c-0.2,0-0.5,0-0.7,0l0,0
		c-14.8,0.7-18.3,11.5-33.8,11.5c-16,0-19.2-11.5-35.2-11.5s-19.2,11.5-35.3,11.5c-16,0-19.2-11.5-35.2-11.5s-19.2,11.5-35.2,11.5
		S436,17,420.1,17l0,0l0,0l0,0c0,0,0,0-0.1,0s0,0-0.1,0l0,0c-15.9,0.1-19.1,11.5-35.1,11.5C368.2,28.5,365,17,349,17
		s-19.2,11.5-35.2,11.5S294.6,17,278.6,17s-19.2,11.5-35.2,11.5c-14.6,0-18.5-9.5-31.2-11.3l0,0V17c-0.7,0-1.4,0-2,0.1
		c-0.7,0-1.3-0.1-2-0.1v0.3l0,0C195.6,19,191.6,28.6,177,28.6c-16,0-19.2-11.5-35.2-11.5s-19.2,11.5-35.3,11.5
		c-16,0-19.2-11.5-35.2-11.5S52.1,28.6,36.1,28.6c-9,0-13.9-3.6-19.3-6.8c-0.1-0.1-0.2-0.1-0.3-0.2C12,19.1,7.5,17,0.6,17v70H1472.4
		z"/>
</g>
</svg>
